<svg width="161" height="123" viewBox="0 0 161 123" fill="none" xmlns="http://www.w3.org/2000/svg">
<rect width="161" height="123" fill="#F3AFA7"/>
<path fill-rule="evenodd" clip-rule="evenodd" d="M101.4 56.45C102.51 53.771 103.081 50.8997 103.081 48L58.9191 48C58.9191 50.8997 59.4902 53.771 60.5999 56.45C61.7095 59.129 63.336 61.5632 65.3864 63.6136C67.4368 65.664 69.871 67.2905 72.55 68.4001C75.229 69.5098 78.1003 70.0809 81 70.0809C83.8997 70.0809 86.771 69.5098 89.45 68.4001C92.129 67.2905 94.5632 65.664 96.6136 63.6136C98.664 61.5632 100.29 59.129 101.4 56.45ZM51 48C51 50.709 51.3669 53.3999 52.0863 56C52.4131 57.1811 52.8127 58.3436 53.2836 59.4805C54.7913 63.1203 57.001 66.4274 59.7868 69.2132C62.5726 71.999 65.8797 74.2087 69.5195 75.7164C73.1593 77.224 77.0603 78 81 78C84.9397 78 88.8407 77.224 92.4805 75.7164C96.1203 74.2087 99.4274 71.999 102.213 69.2132C104.999 66.4274 107.209 63.1203 108.716 59.4805C109.187 58.3436 109.587 57.1811 109.914 56C110.633 53.3999 111 50.709 111 48H119.5C139.658 48 156 64.3416 156 84.5C156 104.658 139.658 121 119.5 121H42.5C22.3416 121 6 104.658 6 84.5C6 64.3416 22.3416 48 42.5 48L51 48Z" fill="white"/>
<rect x="42.5561" y="25.8984" width="13.2032" height="4" rx="2" transform="rotate(30 42.5561 25.8984)" fill="white"/>
<rect x="59.4641" y="9" width="13.2032" height="4" rx="2" transform="rotate(60 59.4641 9)" fill="white"/>
<rect width="13.423" height="4.06659" rx="2.03329" transform="matrix(-0.866025 0.5 0.5 0.866025 120.625 26)" fill="white"/>
<rect width="13.423" height="4.06659" rx="2.03329" transform="matrix(-0.5 0.866025 0.866025 0.5 103.711 9)" fill="white"/>
<rect x="83" y="3" width="13.2032" height="4" rx="2" transform="rotate(90 83 3)" fill="white"/>
<circle cx="81" cy="48" r="22" fill="white"/>
<path d="M28.8262 92.125C29.1777 92.138 29.4772 92.2682 29.7246 92.5156C29.972 92.75 30.1022 93.043 30.1152 93.3945V96.6562H36.4629V93.3945C36.4759 93.0299 36.6126 92.7305 36.873 92.4961C37.1335 92.2487 37.446 92.125 37.8105 92.125C38.1621 92.138 38.4616 92.2682 38.709 92.5156C38.9564 92.75 39.0866 93.043 39.0996 93.3945V102.965C39.0215 103.746 38.5918 104.169 37.8105 104.234C37.446 104.234 37.127 104.117 36.8535 103.883C36.5931 103.635 36.4629 103.329 36.4629 102.965V99.2734H30.1152V102.965C30.0371 103.746 29.6074 104.169 28.8262 104.234C28.4616 104.234 28.1426 104.117 27.8691 103.883C27.6087 103.635 27.4785 103.329 27.4785 102.965V93.3945C27.4915 93.0299 27.6283 92.7305 27.8887 92.4961C28.1491 92.2487 28.4616 92.125 28.8262 92.125ZM53.0098 92.4375C53.6738 92.4505 54.2663 92.6589 54.7871 93.0625C55.3079 93.4661 55.7246 93.9479 56.0371 94.5078C56.3626 95.0677 56.6035 95.6602 56.7598 96.2852C56.916 96.9102 56.9941 97.5482 56.9941 98.1992C56.9941 99.0586 56.8574 99.9049 56.584 100.738C56.3236 101.559 55.8874 102.288 55.2754 102.926C54.6764 103.564 53.9212 103.909 53.0098 103.961H46.1934C45.2819 103.922 44.5202 103.583 43.9082 102.945C43.2962 102.307 42.86 101.572 42.5996 100.738C42.3522 99.9049 42.2285 99.0586 42.2285 98.1992C42.2285 97.3398 42.3587 96.5 42.6191 95.6797C42.8796 94.8464 43.3092 94.1107 43.9082 93.4727C44.5202 92.8216 45.2819 92.4766 46.1934 92.4375H46.5645H52.6387H53.0098ZM52.3457 101.344C52.8405 101.318 53.2507 101.135 53.5762 100.797C53.9147 100.445 54.1556 100.042 54.2988 99.5859C54.4421 99.1302 54.5137 98.668 54.5137 98.1992C54.5137 97.7305 54.4355 97.2747 54.2793 96.832C54.1361 96.3763 53.9017 95.9727 53.5762 95.6211C53.2507 95.2695 52.8405 95.0807 52.3457 95.0547H46.7988C46.304 95.0807 45.8939 95.2695 45.5684 95.6211C45.2428 95.9727 45.002 96.3763 44.8457 96.832C44.7025 97.2747 44.6309 97.7305 44.6309 98.1992C44.6309 98.668 44.7025 99.1302 44.8457 99.5859C44.9889 100.042 45.2233 100.445 45.5488 100.797C45.8874 101.135 46.304 101.318 46.7988 101.344H52.3457ZM59.7129 102.652C59.7129 102.288 59.8366 101.982 60.084 101.734C60.3444 101.474 60.6569 101.344 61.0215 101.344H64.7715V95.0547H61.0215C60.6569 95.0547 60.3509 94.9245 60.1035 94.6641C59.8431 94.4167 59.7129 94.1107 59.7129 93.7461C59.7129 93.3815 59.8366 93.0755 60.084 92.8281C60.3444 92.5677 60.6569 92.4375 61.0215 92.4375H71.1387C71.5033 92.4375 71.8158 92.5612 72.0762 92.8086C72.3236 93.069 72.4473 93.3815 72.4473 93.7461C72.4473 94.1107 72.3171 94.4232 72.0566 94.6836C71.8092 94.931 71.5033 95.0547 71.1387 95.0547H67.4082V101.344H71.1387C71.5033 101.344 71.8158 101.467 72.0762 101.715C72.3236 101.975 72.4473 102.288 72.4473 102.652C72.4473 103.017 72.3171 103.329 72.0566 103.59C71.8092 103.837 71.5033 103.961 71.1387 103.961H61.0215C60.6569 103.961 60.3509 103.831 60.1035 103.57C59.8431 103.323 59.7129 103.017 59.7129 102.652ZM76.8066 92.125C77.1582 92.138 77.4577 92.2682 77.7051 92.5156C77.9525 92.75 78.0827 93.043 78.0957 93.3945V102.965C78.0176 103.746 77.5879 104.169 76.8066 104.234C76.4421 104.234 76.123 104.117 75.8496 103.883C75.5892 103.635 75.459 103.329 75.459 102.965V93.3945C75.472 93.0299 75.6087 92.7305 75.8691 92.4961C76.1296 92.2487 76.4421 92.125 76.8066 92.125ZM80.1465 95.5625C81.0189 94.9766 82.1973 94.3841 83.6816 93.7852L86.8848 92.418C87.028 92.3529 87.1842 92.3138 87.3535 92.3008C87.7181 92.2747 88.0306 92.3854 88.291 92.6328C88.5514 92.8672 88.6816 93.1732 88.6816 93.5508C88.6816 93.9805 88.5905 94.2995 88.4082 94.5078C88.2389 94.7031 88.0176 94.8659 87.7441 94.9961L85.0098 96.0312C84.4759 96.2396 83.9681 96.4479 83.4863 96.6562C83.0176 96.8516 82.5879 97.0794 82.1973 97.3398C81.8066 97.5742 81.5983 97.8411 81.5723 98.1406C81.5983 98.4271 81.8066 98.694 82.1973 98.9414C82.5879 99.2018 83.0176 99.4362 83.4863 99.6445C83.9681 99.8398 84.4759 100.042 85.0098 100.25L88.0566 101.363C88.3301 101.493 88.5514 101.663 88.7207 101.871C88.903 102.066 88.9941 102.379 88.9941 102.809C88.9941 103.186 88.8639 103.499 88.6035 103.746C88.3431 103.98 88.0306 104.085 87.666 104.059C87.4967 104.046 87.3405 104.007 87.1973 103.941L83.6816 102.496C82.1973 101.897 81.0124 101.305 80.127 100.719C79.2546 100.12 78.8118 99.2604 78.7988 98.1406C78.8118 97.0208 79.2611 96.1615 80.1465 95.5625ZM98.1973 104.41C97.5202 104.41 96.8496 104.332 96.1855 104.176C95.5345 104.02 94.9095 103.792 94.3105 103.492C93.7116 103.18 93.1842 102.77 92.7285 102.262C92.2728 101.754 92.0254 101.148 91.9863 100.445V99.625V93.3945C91.9863 93.0299 92.1165 92.7305 92.377 92.4961C92.6504 92.2487 92.9694 92.125 93.334 92.125C94.1152 92.1901 94.5384 92.6133 94.6035 93.3945V99.8398C94.6296 100.243 94.7793 100.582 95.0527 100.855C95.3392 101.116 95.6517 101.324 95.9902 101.48C96.3418 101.637 96.6999 101.754 97.0645 101.832C97.4421 101.91 97.8197 101.949 98.1973 101.949C98.5749 101.949 98.946 101.91 99.3105 101.832C99.6882 101.754 100.046 101.637 100.385 101.48C100.736 101.324 101.049 101.116 101.322 100.855C101.609 100.582 101.765 100.243 101.791 99.8398V93.3945C101.791 93.0299 101.921 92.7305 102.182 92.4961C102.455 92.2487 102.774 92.125 103.139 92.125C103.92 92.1901 104.35 92.6133 104.428 93.3945V99.625V100.445C104.389 101.148 104.135 101.754 103.666 102.262C103.21 102.77 102.683 103.18 102.084 103.492C101.485 103.792 100.854 104.02 100.189 104.176C99.5384 104.332 98.8743 104.41 98.1973 104.41ZM110.662 102.965C110.584 103.746 110.154 104.169 109.373 104.234C109.008 104.234 108.689 104.117 108.416 103.883C108.156 103.635 108.025 103.329 108.025 102.965V93.707C108.038 93.3424 108.175 93.043 108.436 92.8086C108.696 92.5612 109.008 92.4375 109.373 92.4375H110.33H112.732H117.557C117.635 92.4375 117.713 92.444 117.791 92.457H117.908C118.82 92.4831 119.568 92.6914 120.154 93.082C120.74 93.4727 121.163 93.9219 121.424 94.4297C121.684 94.9245 121.814 95.4258 121.814 95.9336C121.814 96.4544 121.684 96.9688 121.424 97.4766C121.176 97.9714 120.753 98.4141 120.154 98.8047C119.568 99.1953 118.82 99.4036 117.908 99.4297H114.471C114.575 100.081 114.79 100.562 115.115 100.875C115.428 101.188 115.825 101.344 116.307 101.344H120.525C120.89 101.357 121.189 101.493 121.424 101.754C121.671 102.014 121.795 102.327 121.795 102.691C121.782 103.043 121.652 103.342 121.404 103.59C121.17 103.824 120.877 103.948 120.525 103.961H115.955C114.992 103.974 114.119 103.596 113.338 102.828C112.557 102.06 112.081 101.148 111.912 100.094C111.678 98.9219 111.561 98.2643 111.561 98.1211C111.561 97.7565 111.684 97.4505 111.932 97.2031C112.192 96.9427 112.505 96.8125 112.869 96.8125H118.025C118.273 96.7995 118.475 96.7474 118.631 96.6562C118.8 96.5521 118.924 96.4414 119.002 96.3242C119.08 96.194 119.119 96.0638 119.119 95.9336C119.119 95.8034 119.08 95.6797 119.002 95.5625C118.924 95.4323 118.8 95.3216 118.631 95.2305C118.475 95.1263 118.273 95.0677 118.025 95.0547H112.732H111.17C110.831 95.0677 110.662 95.237 110.662 95.5625V102.965ZM131.154 104.41C130.477 104.41 129.807 104.332 129.143 104.176C128.492 104.02 127.867 103.792 127.268 103.492C126.669 103.18 126.141 102.77 125.686 102.262C125.23 101.754 124.982 101.148 124.943 100.445V99.625V93.3945C124.943 93.0299 125.074 92.7305 125.334 92.4961C125.607 92.2487 125.926 92.125 126.291 92.125C127.072 92.1901 127.495 92.6133 127.561 93.3945V99.8398C127.587 100.243 127.736 100.582 128.01 100.855C128.296 101.116 128.609 101.324 128.947 101.48C129.299 101.637 129.657 101.754 130.021 101.832C130.399 101.91 130.777 101.949 131.154 101.949C131.532 101.949 131.903 101.91 132.268 101.832C132.645 101.754 133.003 101.637 133.342 101.48C133.693 101.324 134.006 101.116 134.279 100.855C134.566 100.582 134.722 100.243 134.748 99.8398V93.3945C134.748 93.0299 134.878 92.7305 135.139 92.4961C135.412 92.2487 135.731 92.125 136.096 92.125C136.877 92.1901 137.307 92.6133 137.385 93.3945V99.625V100.445C137.346 101.148 137.092 101.754 136.623 102.262C136.167 102.77 135.64 103.18 135.041 103.492C134.442 103.792 133.811 104.02 133.146 104.176C132.495 104.332 131.831 104.41 131.154 104.41Z" fill="#1A87BA"/>
<rect x="77.8638" y="50" width="21" height="4" rx="2" transform="rotate(75 77.8638 50)" fill="#F5AFA8"/>
<rect x="88.2988" y="51.0353" width="21" height="4" rx="2" transform="rotate(105 88.2988 51.0353)" fill="#F5AFA8"/>
</svg>
