<svg width="150" height="118" viewBox="0 0 150 118" fill="none" xmlns="http://www.w3.org/2000/svg">
<path fill-rule="evenodd" clip-rule="evenodd" d="M95.4001 53.45C96.5098 50.771 97.0809 47.8997 97.0809 45L52.9191 45C52.9191 47.8997 53.4902 50.771 54.5999 53.45C55.7095 56.129 57.336 58.5632 59.3864 60.6136C61.4368 62.664 63.871 64.2905 66.55 65.4001C69.229 66.5098 72.1003 67.0809 75 67.0809C77.8997 67.0809 80.771 66.5098 83.45 65.4001C86.129 64.2905 88.5632 62.664 90.6136 60.6136C92.664 58.5632 94.2905 56.129 95.4001 53.45ZM45 45C45 47.709 45.3669 50.3999 46.0863 53C46.4131 54.1811 46.8127 55.3436 47.2836 56.4805C48.7913 60.1203 51.001 63.4274 53.7868 66.2132C56.5726 68.999 59.8797 71.2087 63.5195 72.7164C67.1593 74.224 71.0603 75 75 75C78.9397 75 82.8407 74.224 86.4805 72.7164C90.1203 71.2087 93.4274 68.999 96.2132 66.2132C98.999 63.4274 101.209 60.1203 102.716 56.4805C103.187 55.3436 103.587 54.1811 103.914 53C104.633 50.3999 105 47.709 105 45H113.5C133.658 45 150 61.3416 150 81.5C150 101.658 133.658 118 113.5 118H36.5C16.3416 118 0 101.658 0 81.5C0 61.3416 16.3416 45 36.5 45L45 45Z" fill="white"/>
<rect x="36.5561" y="22.8984" width="13.2032" height="4" rx="2" transform="rotate(30 36.5561 22.8984)" fill="white"/>
<rect x="53.4641" y="6" width="13.2032" height="4" rx="2" transform="rotate(60 53.4641 6)" fill="white"/>
<rect width="13.423" height="4.06659" rx="2.03329" transform="matrix(-0.866025 0.5 0.5 0.866025 114.625 23)" fill="white"/>
<rect width="13.423" height="4.06659" rx="2.03329" transform="matrix(-0.5 0.866025 0.866025 0.5 97.7115 6)" fill="white"/>
<rect x="77" width="13.2032" height="4" rx="2" transform="rotate(90 77 0)" fill="white"/>
<circle cx="75" cy="45" r="22" fill="white"/>
<path d="M22.8262 89.125C23.1777 89.138 23.4772 89.2682 23.7246 89.5156C23.972 89.75 24.1022 90.043 24.1152 90.3945V93.6562H30.4629V90.3945C30.4759 90.0299 30.6126 89.7305 30.873 89.4961C31.1335 89.2487 31.446 89.125 31.8105 89.125C32.1621 89.138 32.4616 89.2682 32.709 89.5156C32.9564 89.75 33.0866 90.043 33.0996 90.3945V99.9648C33.0215 100.746 32.5918 101.169 31.8105 101.234C31.446 101.234 31.127 101.117 30.8535 100.883C30.5931 100.635 30.4629 100.329 30.4629 99.9648V96.2734H24.1152V99.9648C24.0371 100.746 23.6074 101.169 22.8262 101.234C22.4616 101.234 22.1426 101.117 21.8691 100.883C21.6087 100.635 21.4785 100.329 21.4785 99.9648V90.3945C21.4915 90.0299 21.6283 89.7305 21.8887 89.4961C22.1491 89.2487 22.4616 89.125 22.8262 89.125ZM47.0098 89.4375C47.6738 89.4505 48.2663 89.6589 48.7871 90.0625C49.3079 90.4661 49.7246 90.9479 50.0371 91.5078C50.3626 92.0677 50.6035 92.6602 50.7598 93.2852C50.916 93.9102 50.9941 94.5482 50.9941 95.1992C50.9941 96.0586 50.8574 96.9049 50.584 97.7383C50.3236 98.5586 49.8874 99.2878 49.2754 99.9258C48.6764 100.564 47.9212 100.909 47.0098 100.961H40.1934C39.2819 100.922 38.5202 100.583 37.9082 99.9453C37.2962 99.3073 36.86 98.5716 36.5996 97.7383C36.3522 96.9049 36.2285 96.0586 36.2285 95.1992C36.2285 94.3398 36.3587 93.5 36.6191 92.6797C36.8796 91.8464 37.3092 91.1107 37.9082 90.4727C38.5202 89.8216 39.2819 89.4766 40.1934 89.4375H40.5645H46.6387H47.0098ZM46.3457 98.3438C46.8405 98.3177 47.2507 98.1354 47.5762 97.7969C47.9147 97.4453 48.1556 97.0417 48.2988 96.5859C48.4421 96.1302 48.5137 95.668 48.5137 95.1992C48.5137 94.7305 48.4355 94.2747 48.2793 93.832C48.1361 93.3763 47.9017 92.9727 47.5762 92.6211C47.2507 92.2695 46.8405 92.0807 46.3457 92.0547H40.7988C40.304 92.0807 39.8939 92.2695 39.5684 92.6211C39.2428 92.9727 39.002 93.3763 38.8457 93.832C38.7025 94.2747 38.6309 94.7305 38.6309 95.1992C38.6309 95.668 38.7025 96.1302 38.8457 96.5859C38.9889 97.0417 39.2233 97.4453 39.5488 97.7969C39.8874 98.1354 40.304 98.3177 40.7988 98.3438H46.3457ZM53.7129 99.6523C53.7129 99.2878 53.8366 98.9818 54.084 98.7344C54.3444 98.474 54.6569 98.3438 55.0215 98.3438H58.7715V92.0547H55.0215C54.6569 92.0547 54.3509 91.9245 54.1035 91.6641C53.8431 91.4167 53.7129 91.1107 53.7129 90.7461C53.7129 90.3815 53.8366 90.0755 54.084 89.8281C54.3444 89.5677 54.6569 89.4375 55.0215 89.4375H65.1387C65.5033 89.4375 65.8158 89.5612 66.0762 89.8086C66.3236 90.069 66.4473 90.3815 66.4473 90.7461C66.4473 91.1107 66.3171 91.4232 66.0566 91.6836C65.8092 91.931 65.5033 92.0547 65.1387 92.0547H61.4082V98.3438H65.1387C65.5033 98.3438 65.8158 98.4674 66.0762 98.7148C66.3236 98.9753 66.4473 99.2878 66.4473 99.6523C66.4473 100.017 66.3171 100.329 66.0566 100.59C65.8092 100.837 65.5033 100.961 65.1387 100.961H55.0215C54.6569 100.961 54.3509 100.831 54.1035 100.57C53.8431 100.323 53.7129 100.017 53.7129 99.6523ZM70.8066 89.125C71.1582 89.138 71.4577 89.2682 71.7051 89.5156C71.9525 89.75 72.0827 90.043 72.0957 90.3945V99.9648C72.0176 100.746 71.5879 101.169 70.8066 101.234C70.4421 101.234 70.123 101.117 69.8496 100.883C69.5892 100.635 69.459 100.329 69.459 99.9648V90.3945C69.472 90.0299 69.6087 89.7305 69.8691 89.4961C70.1296 89.2487 70.4421 89.125 70.8066 89.125ZM74.1465 92.5625C75.0189 91.9766 76.1973 91.3841 77.6816 90.7852L80.8848 89.418C81.028 89.3529 81.1842 89.3138 81.3535 89.3008C81.7181 89.2747 82.0306 89.3854 82.291 89.6328C82.5514 89.8672 82.6816 90.1732 82.6816 90.5508C82.6816 90.9805 82.5905 91.2995 82.4082 91.5078C82.2389 91.7031 82.0176 91.8659 81.7441 91.9961L79.0098 93.0312C78.4759 93.2396 77.9681 93.4479 77.4863 93.6562C77.0176 93.8516 76.5879 94.0794 76.1973 94.3398C75.8066 94.5742 75.5983 94.8411 75.5723 95.1406C75.5983 95.4271 75.8066 95.694 76.1973 95.9414C76.5879 96.2018 77.0176 96.4362 77.4863 96.6445C77.9681 96.8398 78.4759 97.0417 79.0098 97.25L82.0566 98.3633C82.3301 98.4935 82.5514 98.6628 82.7207 98.8711C82.903 99.0664 82.9941 99.3789 82.9941 99.8086C82.9941 100.186 82.8639 100.499 82.6035 100.746C82.3431 100.98 82.0306 101.085 81.666 101.059C81.4967 101.046 81.3405 101.007 81.1973 100.941L77.6816 99.4961C76.1973 98.8971 75.0124 98.3047 74.127 97.7188C73.2546 97.1198 72.8118 96.2604 72.7988 95.1406C72.8118 94.0208 73.2611 93.1615 74.1465 92.5625ZM92.1973 101.41C91.5202 101.41 90.8496 101.332 90.1855 101.176C89.5345 101.02 88.9095 100.792 88.3105 100.492C87.7116 100.18 87.1842 99.7695 86.7285 99.2617C86.2728 98.7539 86.0254 98.1484 85.9863 97.4453V96.625V90.3945C85.9863 90.0299 86.1165 89.7305 86.377 89.4961C86.6504 89.2487 86.9694 89.125 87.334 89.125C88.1152 89.1901 88.5384 89.6133 88.6035 90.3945V96.8398C88.6296 97.2435 88.7793 97.582 89.0527 97.8555C89.3392 98.1159 89.6517 98.3242 89.9902 98.4805C90.3418 98.6367 90.6999 98.7539 91.0645 98.832C91.4421 98.9102 91.8197 98.9492 92.1973 98.9492C92.5749 98.9492 92.946 98.9102 93.3105 98.832C93.6882 98.7539 94.0462 98.6367 94.3848 98.4805C94.7363 98.3242 95.0488 98.1159 95.3223 97.8555C95.6087 97.582 95.765 97.2435 95.791 96.8398V90.3945C95.791 90.0299 95.9212 89.7305 96.1816 89.4961C96.4551 89.2487 96.7741 89.125 97.1387 89.125C97.9199 89.1901 98.3496 89.6133 98.4277 90.3945V96.625V97.4453C98.3887 98.1484 98.1348 98.7539 97.666 99.2617C97.2103 99.7695 96.6829 100.18 96.084 100.492C95.485 100.792 94.8535 101.02 94.1895 101.176C93.5384 101.332 92.8743 101.41 92.1973 101.41ZM104.662 99.9648C104.584 100.746 104.154 101.169 103.373 101.234C103.008 101.234 102.689 101.117 102.416 100.883C102.156 100.635 102.025 100.329 102.025 99.9648V90.707C102.038 90.3424 102.175 90.043 102.436 89.8086C102.696 89.5612 103.008 89.4375 103.373 89.4375H104.33H106.732H111.557C111.635 89.4375 111.713 89.444 111.791 89.457H111.908C112.82 89.4831 113.568 89.6914 114.154 90.082C114.74 90.4727 115.163 90.9219 115.424 91.4297C115.684 91.9245 115.814 92.4258 115.814 92.9336C115.814 93.4544 115.684 93.9688 115.424 94.4766C115.176 94.9714 114.753 95.4141 114.154 95.8047C113.568 96.1953 112.82 96.4036 111.908 96.4297H108.471C108.575 97.0807 108.79 97.5625 109.115 97.875C109.428 98.1875 109.825 98.3438 110.307 98.3438H114.525C114.89 98.3568 115.189 98.4935 115.424 98.7539C115.671 99.0143 115.795 99.3268 115.795 99.6914C115.782 100.043 115.652 100.342 115.404 100.59C115.17 100.824 114.877 100.948 114.525 100.961H109.955C108.992 100.974 108.119 100.596 107.338 99.8281C106.557 99.0599 106.081 98.1484 105.912 97.0938C105.678 95.9219 105.561 95.2643 105.561 95.1211C105.561 94.7565 105.684 94.4505 105.932 94.2031C106.192 93.9427 106.505 93.8125 106.869 93.8125H112.025C112.273 93.7995 112.475 93.7474 112.631 93.6562C112.8 93.5521 112.924 93.4414 113.002 93.3242C113.08 93.194 113.119 93.0638 113.119 92.9336C113.119 92.8034 113.08 92.6797 113.002 92.5625C112.924 92.4323 112.8 92.3216 112.631 92.2305C112.475 92.1263 112.273 92.0677 112.025 92.0547H106.732H105.17C104.831 92.0677 104.662 92.237 104.662 92.5625V99.9648ZM125.154 101.41C124.477 101.41 123.807 101.332 123.143 101.176C122.492 101.02 121.867 100.792 121.268 100.492C120.669 100.18 120.141 99.7695 119.686 99.2617C119.23 98.7539 118.982 98.1484 118.943 97.4453V96.625V90.3945C118.943 90.0299 119.074 89.7305 119.334 89.4961C119.607 89.2487 119.926 89.125 120.291 89.125C121.072 89.1901 121.495 89.6133 121.561 90.3945V96.8398C121.587 97.2435 121.736 97.582 122.01 97.8555C122.296 98.1159 122.609 98.3242 122.947 98.4805C123.299 98.6367 123.657 98.7539 124.021 98.832C124.399 98.9102 124.777 98.9492 125.154 98.9492C125.532 98.9492 125.903 98.9102 126.268 98.832C126.645 98.7539 127.003 98.6367 127.342 98.4805C127.693 98.3242 128.006 98.1159 128.279 97.8555C128.566 97.582 128.722 97.2435 128.748 96.8398V90.3945C128.748 90.0299 128.878 89.7305 129.139 89.4961C129.412 89.2487 129.731 89.125 130.096 89.125C130.877 89.1901 131.307 89.6133 131.385 90.3945V96.625V97.4453C131.346 98.1484 131.092 98.7539 130.623 99.2617C130.167 99.7695 129.64 100.18 129.041 100.492C128.442 100.792 127.811 101.02 127.146 101.176C126.495 101.332 125.831 101.41 125.154 101.41Z" fill="#1A87BA"/>
<rect x="71.8637" y="47" width="21" height="4" rx="2" transform="rotate(75 71.8637 47)" fill="#F5AFA8"/>
<rect x="82.2989" y="48.0353" width="21" height="4" rx="2" transform="rotate(105 82.2989 48.0353)" fill="#F5AFA8"/>
</svg>
