<svg width="32" height="35" viewBox="0 0 32 35" fill="none" xmlns="http://www.w3.org/2000/svg">
<path d="M1.46143 14.1034C1.46143 7.92681 1.46143 4.83767 3.38108 2.91966C5.30074 1.00164 8.38824 1 14.5649 1H17.8407C24.0174 1 27.1065 1 29.0245 2.91966C30.9425 4.83931 30.9442 7.92681 30.9442 14.1034V20.6552C30.9442 26.8318 30.9442 29.9209 29.0245 31.839C27.1049 33.757 24.0174 33.7586 17.8407 33.7586H14.5649C8.38824 33.7586 5.2991 33.7586 3.38108 31.839C1.46306 29.9193 1.46143 26.8318 1.46143 20.6552V14.1034Z" stroke="#444444" stroke-width="1.5"/>
<path d="M9.651 14.1035H22.7544M9.651 20.6552H17.8407" stroke="#444444" stroke-width="1.5" stroke-linecap="round"/>
</svg>
