<svg width="31" height="35" viewBox="0 0 31 35" fill="none" xmlns="http://www.w3.org/2000/svg">
<path d="M4.82644 33.2911C2.7132 33.2911 1 31.5331 1 29.3624V13.5723C1 12.3794 1.52921 11.2492 2.43514 10.5047L12.9601 1.86158C13.6326 1.30471 14.4783 1 15.3514 1C16.2245 1 17.0702 1.30471 17.7427 1.86158L28.2659 10.5047C29.1736 11.2492 29.7028 12.3794 29.7028 13.5723V29.3624C29.7028 31.5331 27.9896 33.2911 25.8764 33.2911H4.82644Z" stroke="#444444" stroke-width="1.5" stroke-linecap="round" stroke-linejoin="round"/>
<path d="M10.8666 33.2911V23.4245C10.8666 22.473 11.2446 21.5604 11.9174 20.8875C12.5903 20.2147 13.5029 19.8367 14.4544 19.8367H16.2484C17.1999 19.8367 18.1125 20.2147 18.7853 20.8875C19.4582 21.5604 19.8362 22.473 19.8362 23.4245V33.2911" stroke="#444444" stroke-width="1.5" stroke-linecap="round" stroke-linejoin="round"/>
</svg>
