<svg width="221" height="69" viewBox="0 0 221 69" fill="none" xmlns="http://www.w3.org/2000/svg">
<rect x="2.55609" y="22.8984" width="13.2032" height="4" rx="2" transform="rotate(30 2.55609 22.8984)" fill="#F5AFA8"/>
<rect x="19.4641" y="6" width="13.2032" height="4" rx="2" transform="rotate(60 19.4641 6)" fill="#F5AFA8"/>
<rect width="13.423" height="4.06659" rx="2.03329" transform="matrix(-0.866025 0.5 0.5 0.866025 80.6246 23)" fill="#F5AFA8"/>
<rect width="13.423" height="4.06659" rx="2.03329" transform="matrix(-0.5 0.866025 0.866025 0.5 63.7115 6)" fill="#F5AFA8"/>
<rect x="43" width="13.2032" height="4" rx="2" transform="rotate(90 43 0)" fill="#F5AFA8"/>
<circle cx="41" cy="45" r="22" fill="#F5AFA8"/>
<path d="M86.5914 38.75C87.0133 38.7656 87.3727 38.9219 87.6695 39.2188C87.9664 39.5 88.1227 39.8516 88.1383 40.2734V44.1875H95.7555V40.2734C95.7711 39.8359 95.9352 39.4766 96.2477 39.1953C96.5602 38.8984 96.9352 38.75 97.3727 38.75C97.7945 38.7656 98.1539 38.9219 98.4508 39.2188C98.7477 39.5 98.9039 39.8516 98.9195 40.2734V51.7578C98.8258 52.6953 98.3102 53.2031 97.3727 53.2812C96.9352 53.2812 96.5523 53.1406 96.2242 52.8594C95.9117 52.5625 95.7555 52.1953 95.7555 51.7578V47.3281H88.1383V51.7578C88.0445 52.6953 87.5289 53.2031 86.5914 53.2812C86.1539 53.2812 85.7711 53.1406 85.443 52.8594C85.1305 52.5625 84.9742 52.1953 84.9742 51.7578V40.2734C84.9898 39.8359 85.1539 39.4766 85.4664 39.1953C85.7789 38.8984 86.1539 38.75 86.5914 38.75ZM115.612 39.125C116.409 39.1406 117.12 39.3906 117.745 39.875C118.37 40.3594 118.87 40.9375 119.245 41.6094C119.635 42.2812 119.924 42.9922 120.112 43.7422C120.299 44.4922 120.393 45.2578 120.393 46.0391C120.393 47.0703 120.229 48.0859 119.901 49.0859C119.588 50.0703 119.065 50.9453 118.33 51.7109C117.612 52.4766 116.705 52.8906 115.612 52.9531H107.432C106.338 52.9062 105.424 52.5 104.69 51.7344C103.955 50.9688 103.432 50.0859 103.12 49.0859C102.823 48.0859 102.674 47.0703 102.674 46.0391C102.674 45.0078 102.83 44 103.143 43.0156C103.455 42.0156 103.971 41.1328 104.69 40.3672C105.424 39.5859 106.338 39.1719 107.432 39.125H107.877H115.166H115.612ZM114.815 49.8125C115.409 49.7812 115.901 49.5625 116.291 49.1562C116.698 48.7344 116.987 48.25 117.159 47.7031C117.33 47.1562 117.416 46.6016 117.416 46.0391C117.416 45.4766 117.323 44.9297 117.135 44.3984C116.963 43.8516 116.682 43.3672 116.291 42.9453C115.901 42.5234 115.409 42.2969 114.815 42.2656H108.159C107.565 42.2969 107.073 42.5234 106.682 42.9453C106.291 43.3672 106.002 43.8516 105.815 44.3984C105.643 44.9297 105.557 45.4766 105.557 46.0391C105.557 46.6016 105.643 47.1562 105.815 47.7031C105.987 48.25 106.268 48.7344 106.659 49.1562C107.065 49.5625 107.565 49.7812 108.159 49.8125H114.815ZM123.655 51.3828C123.655 50.9453 123.804 50.5781 124.101 50.2812C124.413 49.9688 124.788 49.8125 125.226 49.8125H129.726V42.2656H125.226C124.788 42.2656 124.421 42.1094 124.124 41.7969C123.812 41.5 123.655 41.1328 123.655 40.6953C123.655 40.2578 123.804 39.8906 124.101 39.5938C124.413 39.2812 124.788 39.125 125.226 39.125H137.366C137.804 39.125 138.179 39.2734 138.491 39.5703C138.788 39.8828 138.937 40.2578 138.937 40.6953C138.937 41.1328 138.78 41.5078 138.468 41.8203C138.171 42.1172 137.804 42.2656 137.366 42.2656H132.89V49.8125H137.366C137.804 49.8125 138.179 49.9609 138.491 50.2578C138.788 50.5703 138.937 50.9453 138.937 51.3828C138.937 51.8203 138.78 52.1953 138.468 52.5078C138.171 52.8047 137.804 52.9531 137.366 52.9531H125.226C124.788 52.9531 124.421 52.7969 124.124 52.4844C123.812 52.1875 123.655 51.8203 123.655 51.3828ZM144.168 38.75C144.59 38.7656 144.949 38.9219 145.246 39.2188C145.543 39.5 145.699 39.8516 145.715 40.2734V51.7578C145.621 52.6953 145.105 53.2031 144.168 53.2812C143.73 53.2812 143.348 53.1406 143.02 52.8594C142.707 52.5625 142.551 52.1953 142.551 51.7578V40.2734C142.566 39.8359 142.73 39.4766 143.043 39.1953C143.355 38.8984 143.73 38.75 144.168 38.75ZM148.176 42.875C149.223 42.1719 150.637 41.4609 152.418 40.7422L156.262 39.1016C156.434 39.0234 156.621 38.9766 156.824 38.9609C157.262 38.9297 157.637 39.0625 157.949 39.3594C158.262 39.6406 158.418 40.0078 158.418 40.4609C158.418 40.9766 158.309 41.3594 158.09 41.6094C157.887 41.8438 157.621 42.0391 157.293 42.1953L154.012 43.4375C153.371 43.6875 152.762 43.9375 152.184 44.1875C151.621 44.4219 151.105 44.6953 150.637 45.0078C150.168 45.2891 149.918 45.6094 149.887 45.9688C149.918 46.3125 150.168 46.6328 150.637 46.9297C151.105 47.2422 151.621 47.5234 152.184 47.7734C152.762 48.0078 153.371 48.25 154.012 48.5L157.668 49.8359C157.996 49.9922 158.262 50.1953 158.465 50.4453C158.684 50.6797 158.793 51.0547 158.793 51.5703C158.793 52.0234 158.637 52.3984 158.324 52.6953C158.012 52.9766 157.637 53.1016 157.199 53.0703C156.996 53.0547 156.809 53.0078 156.637 52.9297L152.418 51.1953C150.637 50.4766 149.215 49.7656 148.152 49.0625C147.105 48.3438 146.574 47.3125 146.559 45.9688C146.574 44.625 147.113 43.5938 148.176 42.875ZM169.837 53.4922C169.024 53.4922 168.22 53.3984 167.423 53.2109C166.641 53.0234 165.891 52.75 165.173 52.3906C164.454 52.0156 163.821 51.5234 163.274 50.9141C162.727 50.3047 162.43 49.5781 162.384 48.7344V47.75V40.2734C162.384 39.8359 162.54 39.4766 162.852 39.1953C163.18 38.8984 163.563 38.75 164.001 38.75C164.938 38.8281 165.446 39.3359 165.524 40.2734V48.0078C165.555 48.4922 165.735 48.8984 166.063 49.2266C166.407 49.5391 166.782 49.7891 167.188 49.9766C167.61 50.1641 168.04 50.3047 168.477 50.3984C168.93 50.4922 169.384 50.5391 169.837 50.5391C170.29 50.5391 170.735 50.4922 171.173 50.3984C171.626 50.3047 172.055 50.1641 172.462 49.9766C172.884 49.7891 173.259 49.5391 173.587 49.2266C173.93 48.8984 174.118 48.4922 174.149 48.0078V40.2734C174.149 39.8359 174.305 39.4766 174.618 39.1953C174.946 38.8984 175.329 38.75 175.766 38.75C176.704 38.8281 177.22 39.3359 177.313 40.2734V47.75V48.7344C177.266 49.5781 176.962 50.3047 176.399 50.9141C175.852 51.5234 175.22 52.0156 174.501 52.3906C173.782 52.75 173.024 53.0234 172.227 53.2109C171.446 53.3984 170.649 53.4922 169.837 53.4922ZM184.795 51.7578C184.701 52.6953 184.185 53.2031 183.248 53.2812C182.81 53.2812 182.427 53.1406 182.099 52.8594C181.787 52.5625 181.63 52.1953 181.63 51.7578V40.6484C181.646 40.2109 181.81 39.8516 182.123 39.5703C182.435 39.2734 182.81 39.125 183.248 39.125H184.396H187.279H193.068C193.162 39.125 193.255 39.1328 193.349 39.1484H193.49C194.584 39.1797 195.482 39.4297 196.185 39.8984C196.888 40.3672 197.396 40.9062 197.709 41.5156C198.021 42.1094 198.177 42.7109 198.177 43.3203C198.177 43.9453 198.021 44.5625 197.709 45.1719C197.412 45.7656 196.904 46.2969 196.185 46.7656C195.482 47.2344 194.584 47.4844 193.49 47.5156H189.365C189.49 48.2969 189.748 48.875 190.138 49.25C190.513 49.625 190.99 49.8125 191.568 49.8125H196.63C197.068 49.8281 197.427 49.9922 197.709 50.3047C198.005 50.6172 198.154 50.9922 198.154 51.4297C198.138 51.8516 197.982 52.2109 197.685 52.5078C197.404 52.7891 197.052 52.9375 196.63 52.9531H191.146C189.99 52.9688 188.943 52.5156 188.005 51.5938C187.068 50.6719 186.498 49.5781 186.295 48.3125C186.013 46.9062 185.873 46.1172 185.873 45.9453C185.873 45.5078 186.021 45.1406 186.318 44.8438C186.63 44.5312 187.005 44.375 187.443 44.375H193.63C193.927 44.3594 194.17 44.2969 194.357 44.1875C194.56 44.0625 194.709 43.9297 194.802 43.7891C194.896 43.6328 194.943 43.4766 194.943 43.3203C194.943 43.1641 194.896 43.0156 194.802 42.875C194.709 42.7188 194.56 42.5859 194.357 42.4766C194.17 42.3516 193.927 42.2812 193.63 42.2656H187.279H185.404C184.998 42.2812 184.795 42.4844 184.795 42.875V51.7578ZM209.385 53.4922C208.573 53.4922 207.768 53.3984 206.971 53.2109C206.19 53.0234 205.44 52.75 204.721 52.3906C204.002 52.0156 203.37 51.5234 202.823 50.9141C202.276 50.3047 201.979 49.5781 201.932 48.7344V47.75V40.2734C201.932 39.8359 202.088 39.4766 202.401 39.1953C202.729 38.8984 203.112 38.75 203.549 38.75C204.487 38.8281 204.995 39.3359 205.073 40.2734V48.0078C205.104 48.4922 205.284 48.8984 205.612 49.2266C205.955 49.5391 206.33 49.7891 206.737 49.9766C207.159 50.1641 207.588 50.3047 208.026 50.3984C208.479 50.4922 208.932 50.5391 209.385 50.5391C209.838 50.5391 210.284 50.4922 210.721 50.3984C211.174 50.3047 211.604 50.1641 212.01 49.9766C212.432 49.7891 212.807 49.5391 213.135 49.2266C213.479 48.8984 213.666 48.4922 213.698 48.0078V40.2734C213.698 39.8359 213.854 39.4766 214.166 39.1953C214.495 38.8984 214.877 38.75 215.315 38.75C216.252 38.8281 216.768 39.3359 216.862 40.2734V47.75V48.7344C216.815 49.5781 216.51 50.3047 215.948 50.9141C215.401 51.5234 214.768 52.0156 214.049 52.3906C213.33 52.75 212.573 53.0234 211.776 53.2109C210.995 53.3984 210.198 53.4922 209.385 53.4922Z" fill="#1A87BA"/>
<rect x="37.8637" y="47" width="21" height="4" rx="2" transform="rotate(75 37.8637 47)" fill="white"/>
<rect x="48.2989" y="48.0353" width="21" height="4" rx="2" transform="rotate(105 48.2989 48.0353)" fill="white"/>
</svg>
